<?xml version="1.0" encoding="UTF-8"?>
<svg width="321px" height="253px" viewBox="0 0 321 253" version="1.1" xmlns="http://www.w3.org/2000/svg" xmlns:xlink="http://www.w3.org/1999/xlink">
    <title>token_model</title>
    <defs>
        <linearGradient x1="95.9757828%" y1="37.2160701%" x2="87.453355%" y2="155.506308%" id="linearGradient-1">
            <stop stop-color="#85E43F" offset="0%"></stop>
            <stop stop-color="#44C323" offset="100%"></stop>
        </linearGradient>
        <ellipse id="path-2" cx="17.7514793" cy="18" rx="17.7514793" ry="18"></ellipse>
        <linearGradient x1="61.8385148%" y1="14.8140057%" x2="61.8385148%" y2="114.814006%" id="linearGradient-4">
            <stop stop-color="#1D972F" offset="0%"></stop>
            <stop stop-color="#25C13C" offset="100%"></stop>
        </linearGradient>
        <ellipse id="path-5" cx="17.7514793" cy="18" rx="17.7514793" ry="18"></ellipse>
        <ellipse id="path-7" cx="17.7514793" cy="18" rx="16.3313609" ry="16.56"></ellipse>
        <path d="M2.00874291,0 C2.00874291,0 -2.05929545e-15,6.42460408 -2.05929545e-15,8.93152653 L-2.05929545e-15,8.93152653 C-2.05929545e-15,11.4387429 1.23622751,16.0612898 1.23622751,16.0612898 L1.23622751,16.0612898 C1.23622751,16.0612898 0.265040454,16.9264653 0.876850622,17.9810449 L0.876850622,17.9810449 L5.64931772,17.9810449 L6.25315783,13.5598041 L7.68298515,13.5762612 L8.24972829,16.2684735 C7.42374109,17.5027592 8.40275329,17.9810449 8.40275329,17.9810449 L8.40275329,17.9810449 L13.2282575,17.9810449 L13.6854486,13.3974367 C13.6854486,13.3974367 16.9209999,13.005698 17.9253713,10.3418449 L17.9253713,10.3418449 C16.2257215,10.3418449 13.5986475,8.38315102 13.3669364,7.59982041 L13.3669364,7.59982041 C13.1349354,6.81634286 12.0533269,0 12.0533269,0 L12.0533269,0 L2.00874291,0 Z" id="path-9"></path>
        <linearGradient x1="46.6738653%" y1="76.130462%" x2="46.6738653%" y2="100%" id="linearGradient-11">
            <stop stop-color="#44C423" offset="0%"></stop>
            <stop stop-color="#B6E43F" offset="100%"></stop>
        </linearGradient>
        <path d="M0.617229038,4.72378776 C2.28181061,5.30786939 4.25577511,1.4616 4.25577511,1.4616 L4.25577511,1.4616 L1.18179853,0 C1.18179853,0 -1.04720762,4.13941224 0.617229038,4.72378776" id="path-12"></path>
        <linearGradient x1="50%" y1="50%" x2="21.1003012%" y2="100%" id="linearGradient-14">
            <stop stop-color="#44C423" offset="0%"></stop>
            <stop stop-color="#ABE13D" offset="100%"></stop>
        </linearGradient>
        <path d="M0,1.90212245 C0,1.90212245 1.68414443,5.45466122 3.34858109,4.87043265 L3.34858109,4.87043265 C5.01316266,4.28620408 2.92892163,0 2.92892163,0 L2.92892163,0 L0,1.90212245 Z" id="path-15"></path>
        <linearGradient x1="38.224087%" y1="22.4241903%" x2="65.4828127%" y2="94.549341%" id="linearGradient-17">
            <stop stop-color="#44C423" offset="0%"></stop>
            <stop stop-color="#ABE13D" offset="100%"></stop>
        </linearGradient>
        <path d="M-6.4352983e-16,11.9531755 C-6.4352983e-16,18.1870531 6.24185485,22.1752653 13.9416496,22.1752653 L13.9416496,22.1752653 C21.6412994,22.1752653 27.593479,18.4533061 27.593479,12.2194286 L27.593479,12.2194286 C27.593479,5.98555102 21.6412994,0 13.9416496,0 L13.9416496,0 C5.80466127,0 -6.4352983e-16,5.71929796 -6.4352983e-16,11.9531755" id="path-18"></path>
        <linearGradient x1="55.8312182%" y1="15.5165163%" x2="46.6738653%" y2="74.1485413%" id="linearGradient-20">
            <stop stop-color="#B6E43F" offset="0%"></stop>
            <stop stop-color="#44C323" offset="100%"></stop>
        </linearGradient>
        <filter x="-8.4%" y="-43.6%" width="116.8%" height="187.1%" filterUnits="objectBoundingBox" id="filter-21">
            <feGaussianBlur stdDeviation="5.1" in="SourceGraphic"></feGaussianBlur>
        </filter>
        <linearGradient x1="27.8956503%" y1="52.8652852%" x2="73.8861745%" y2="52.8652852%" id="linearGradient-22">
            <stop stop-color="#79F1BA" offset="0%"></stop>
            <stop stop-color="#33D275" offset="100%"></stop>
        </linearGradient>
        <radialGradient cx="0%" cy="0%" fx="0%" fy="0%" r="151.48494%" gradientTransform="translate(0.000000,0.000000),scale(0.328772,1.000000),rotate(159.237295),translate(-0.000000,-0.000000)" id="radialGradient-23">
            <stop stop-color="#79F1BA" offset="0%"></stop>
            <stop stop-color="#44DF84" offset="100%"></stop>
        </radialGradient>
        <path d="M31.8512664,-1.02584607e-13 L85.1969429,26.5366172 L1.28785871e-13,16.8683202 C5.61568602,10.2748727 16.832755,4.45425659 31.8512664,-1.03916875e-13 Z" id="path-24"></path>
        <linearGradient x1="0%" y1="47.0907486%" x2="78.2481875%" y2="53.4399927%" id="linearGradient-26">
            <stop stop-color="#F7EB3A" offset="0%"></stop>
            <stop stop-color="#F4D916" offset="100%"></stop>
        </linearGradient>
        <path d="M72.323613,0 C132.083483,0 180.52843,15.974661 180.52843,35.6804041 L180.52843,35.6804041 L53.3352042,35.6804041 L0.00100066887,9.14038466 C19.1665856,3.45779106 44.5205149,0 72.323613,0 Z" id="path-27"></path>
        <linearGradient x1="50%" y1="0%" x2="50%" y2="100%" id="linearGradient-29">
            <stop stop-color="#FE5A82" offset="0%"></stop>
            <stop stop-color="#FFB0C3" offset="100%"></stop>
        </linearGradient>
        <linearGradient x1="0%" y1="49.8963464%" x2="50%" y2="50.6493987%" id="linearGradient-30">
            <stop stop-color="#FE5A82" offset="0%"></stop>
            <stop stop-color="#FFB0C3" offset="100%"></stop>
        </linearGradient>
        <linearGradient x1="50%" y1="0%" x2="50%" y2="100%" id="linearGradient-31">
            <stop stop-color="#FFFFFF" offset="0%"></stop>
            <stop stop-color="#2F2E41" offset="100%"></stop>
        </linearGradient>
    </defs>
    <g id="网站" stroke="none" stroke-width="1" fill="none" fill-rule="evenodd">
        <g id="token_model" transform="translate(0.000000, 0.397092)">
            <g id="编组-37" transform="translate(0.000000, 214.140118)">
                <g id="椭圆形-3" transform="translate(4.497041, 0.000000)">
                    <mask id="mask-3" fill="white">
                        <use xlink:href="#path-2"></use>
                    </mask>
                    <use id="椭圆形" fill="url(#linearGradient-1)" xlink:href="#path-2"></use>
                    <rect id="矩形" fill="#8AFF50" mask="url(#mask-3)" x="21.5384615" y="4.56" width="15.147929" height="4.8"></rect>
                    <rect id="矩形备份-45" fill="#8AFF50" mask="url(#mask-3)" x="24.6153846" y="14.64" width="15.147929" height="4.8"></rect>
                    <rect id="矩形备份-46" fill="#8AFF50" mask="url(#mask-3)" x="19.6449704" y="26.16" width="15.147929" height="4.8"></rect>
                </g>
                <g id="编组-11">
                    <mask id="mask-6" fill="white">
                        <use xlink:href="#path-5"></use>
                    </mask>
                    <use id="椭圆形" fill="url(#linearGradient-4)" xlink:href="#path-5"></use>
                    <mask id="mask-8" fill="white">
                        <use xlink:href="#path-7"></use>
                    </mask>
                    <use id="椭圆形" fill="#1D972F" xlink:href="#path-7"></use>
                    <g id="编组-10" mask="url(#mask-8)">
                        <g transform="translate(3.985026, 3.159184)" id="编组">
                            <path d="M21.4056467,35.7943636 C22.9731385,33.0557187 20.0350875,32.7968126 20.0350875,32.7968126 C20.0350875,32.7968126 20.0479845,36.5963555 21.4056467,37.1165187 C22.7633088,37.6365351 23.5895858,36.4229677 23.5895858,36.4229677 C23.1515228,34.4871963 21.4056467,35.7943636 21.4056467,35.7943636" id="Fill-1" fill="#FEC91D"></path>
                            <g transform="translate(6.644850, 26.329523)">
                                <mask id="mask-10" fill="white">
                                    <use xlink:href="#path-9"></use>
                                </mask>
                                <g id="Clip-4"></g>
                                <path d="M2.00874291,0 C2.00874291,0 -2.05929545e-15,6.42460408 -2.05929545e-15,8.93152653 L-2.05929545e-15,8.93152653 C-2.05929545e-15,11.4387429 1.23622751,16.0612898 1.23622751,16.0612898 L1.23622751,16.0612898 C1.23622751,16.0612898 0.265040454,16.9264653 0.876850622,17.9810449 L0.876850622,17.9810449 L5.64931772,17.9810449 L6.25315783,13.5598041 L7.68298515,13.5762612 L8.24972829,16.2684735 C7.42374109,17.5027592 8.40275329,17.9810449 8.40275329,17.9810449 L8.40275329,17.9810449 L13.2282575,17.9810449 L13.6854486,13.3974367 C13.6854486,13.3974367 16.9209999,13.005698 17.9253713,10.3418449 L17.9253713,10.3418449 C16.2257215,10.3418449 13.5986475,8.38315102 13.3669364,7.59982041 L13.3669364,7.59982041 C13.1349354,6.81634286 12.0533269,0 12.0533269,0 L12.0533269,0 L2.00874291,0 Z" id="Fill-3" mask="url(#mask-10)"></path>
                            </g>
                            <g transform="translate(6.644734, 26.329567)">
                                <path d="M8.2498732,16.2684735 L7.68313006,13.5762612 L6.25330274,13.5598041 L5.64946263,17.9810449 L0.877140442,17.9810449 C0.265185364,16.9264653 1.23637242,16.0612898 1.23637242,16.0612898 C1.23637242,16.0612898 1.02964773e-15,12.1734367 1.02964773e-15,9.66636735 C1.02964773e-15,7.15929796 1.71921266,0 1.71921266,0 L11.7636517,0 C11.7636517,0 13.295061,6.81193469 13.5118464,7.59982041 C14.1539428,9.93247347 16.2258664,10.3418449 17.9256612,10.3418449 C16.9211448,13.005698 13.6855935,13.3974367 13.6855935,13.3974367 L13.3733124,17.9810449 L8.25798817,17.9810449 C8.25798817,17.9810449 7.68313006,17.457649 8.2498732,16.2684735 Z" id="Stroke-5备份" fill="url(#linearGradient-11)"></path>
                                <path d="M8.2498732,16.2684735 L7.68313006,13.5762612 L6.25330274,13.5598041 L5.64946263,17.9810449 L0.877140442,17.9810449 C0.265185364,16.9264653 1.23637242,16.0612898 1.23637242,16.0612898 C1.23637242,16.0612898 1.02964773e-15,12.1734367 1.02964773e-15,9.66636735 C1.02964773e-15,7.15929796 1.71921266,0 1.71921266,0 L11.7636517,0 C11.7636517,0 13.295061,6.81193469 13.5118464,7.59982041 C14.1539428,9.93247347 16.2258664,10.3418449 17.9256612,10.3418449 C16.9211448,13.005698 13.6855935,13.3974367 13.6855935,13.3974367 L13.3733124,17.9810449 L8.25798817,17.9810449 C8.25798817,17.9810449 7.68313006,17.457649 8.2498732,16.2684735 Z" id="Stroke-5" stroke="#050000" stroke-width="0.587755102" stroke-linecap="round" stroke-linejoin="round"></path>
                            </g>
                            <g transform="translate(14.570647, 29.571286)">
                                <mask id="mask-13" fill="white">
                                    <use xlink:href="#path-12"></use>
                                </mask>
                                <g id="Clip-12"></g>
                                <path d="M0.617229038,4.72378776 C2.28181061,5.30786939 4.25577511,1.4616 4.25577511,1.4616 L4.25577511,1.4616 L1.18179853,0 C1.18179853,0 -1.04720762,4.13941224 0.617229038,4.72378776" id="Fill-11" mask="url(#mask-13)"></path>
                                <path d="M0.617229038,4.72378776 C2.28181061,5.30786939 4.25577511,1.4616 4.25577511,1.4616 L4.25577511,1.4616 L1.18179853,0 C1.18179853,0 -1.04720762,4.13941224 0.617229038,4.72378776" id="Fill-11备份" fill="url(#linearGradient-14)" mask="url(#mask-13)"></path>
                            </g>
                            <g transform="translate(8.003816, 29.330894)">
                                <mask id="mask-16" fill="white">
                                    <use xlink:href="#path-15"></use>
                                </mask>
                                <g id="Clip-14"></g>
                                <path d="M0,1.90212245 C0,1.90212245 1.68414443,5.45466122 3.34858109,4.87043265 L3.34858109,4.87043265 C5.01316266,4.28620408 2.92892163,0 2.92892163,0 L2.92892163,0 L0,1.90212245 Z" id="Fill-13" mask="url(#mask-16)"></path>
                                <path d="M0,1.90212245 C0,1.90212245 1.68414443,5.45466122 3.34858109,4.87043265 L3.34858109,4.87043265 C5.01316266,4.28620408 2.92892163,0 2.92892163,0 L2.92892163,0 L0,1.90212245 Z" id="Fill-13备份" fill="url(#linearGradient-17)" mask="url(#mask-16)"></path>
                            </g>
                            <g transform="translate(0.016563, 0.000000)">
                                <path d="M15.7358966,29.6928192 C15.7358966,29.6928192 13.5068905,33.8322314 15.1713271,34.41646 C16.8359087,35.0006885 18.4196305,31.7737661 18.4196305,31.7737661" id="Stroke-15" stroke="#050000" stroke-width="0.587755102" stroke-linecap="round" stroke-linejoin="round"></path>
                                <path d="M10.8633692,29.4656665 C10.8633692,29.4656665 12.7971936,33.5383685 11.3586717,34.1856339 C9.89681922,34.8434787 8.35410699,31.6081808 8.35410699,31.6081808" id="Stroke-17" stroke="#050000" stroke-width="0.587755102" stroke-linecap="round" stroke-linejoin="round"></path>
                                <path d="M12.3774906,3.76536936 C12.3774906,3.76536936 14.8629876,-0.206973495 16.9673711,0.297320382 C19.0718995,0.801761199 18.7617921,4.59204691 18.7617921,4.59204691 L12.3774906,3.76536936 Z" id="Fill-19" fill="#D39E1D"></path>
                                <path d="M12.3774906,3.76536936 C12.3774906,3.76536936 15.4384253,-1.25317758 16.9673711,0.297320382 C17.6469992,0.986316301 16.9808477,4.06997344 16.9808477,4.06997344 L12.3774906,3.76536936 Z" id="Fill-21" fill="#FEC91D"></path>
                                <path d="M12.3774906,3.61700528 C12.3774906,3.61700528 14.8629876,-0.355484516 16.9673711,0.148956301 C19.0718995,0.653397117 18.7617921,4.44368283 18.7617921,4.44368283 L12.3774906,3.61700528 Z" id="Stroke-23" stroke="#050000" stroke-width="0.587755102"></path>
                                <path d="M27.5933341,17.1004306 C27.5933341,23.980251 21.6412994,28.0880714 13.9416496,28.0880714 C6.24185485,28.0880714 0,23.6863734 0,16.806553 C0,9.92658569 5.80466127,3.61453671 13.9416496,3.61453671 C21.6412994,3.61453671 27.5933341,10.2204632 27.5933341,17.1004306" id="Fill-25" fill="#1D972F"></path>
                            </g>
                            <g transform="translate(0.016520, 3.614551)">
                                <mask id="mask-19" fill="white">
                                    <use xlink:href="#path-18"></use>
                                </mask>
                                <g id="Clip-28"></g>
                                <path d="M-6.4352983e-16,11.9531755 C-6.4352983e-16,18.1870531 6.24185485,22.1752653 13.9416496,22.1752653 L13.9416496,22.1752653 C21.6412994,22.1752653 27.593479,18.4533061 27.593479,12.2194286 L27.593479,12.2194286 C27.593479,5.98555102 21.6412994,0 13.9416496,0 L13.9416496,0 C5.80466127,0 -6.4352983e-16,5.71929796 -6.4352983e-16,11.9531755" id="Fill-27" fill="url(#linearGradient-20)" mask="url(#mask-19)"></path>
                            </g>
                            <g transform="translate(0.000000, 3.530738)">
                                <path d="M24.5643811,14.4586433 C24.5643811,14.4586433 23.13267,14.5112473 21.8849946,14.0516229 C20.4215481,13.5126514 17.1958507,11.3567657 13.651786,11.12328 C8.76744838,10.8014841 6.85869339,12.4003249 4.3100157,12.5330106 C2.54559111,12.6248473 2.22258664,12.3860718 2.22258664,12.3860718 C2.22258664,12.3860718 4.77706074,16.1820882 12.7394324,17.240929 C20.6612293,18.2943331 24.5643811,14.4586433 24.5643811,14.4586433" id="Fill-29" fill="#C13636"></path>
                                <path d="M11.8451926,11.147569 C11.8451926,11.147569 12.0067673,13.2126465 13.4702137,13.3644343 C14.9335153,13.516222 15.4470764,11.469071 15.4470764,11.469071 C15.4470764,11.469071 13.6600459,11.0498547 11.8451926,11.147569" id="Fill-31" fill="#FFFFFF"></path>
                                <path d="M11.1676223,11.3330351 C11.1676223,11.3330351 11.3126772,13.2425045 9.98848931,13.5194841 C8.66430141,13.7963167 7.98003623,11.8705371 7.98003623,11.8705371 C7.98003623,11.8705371 9.67026688,11.186831 11.1676223,11.3330351" id="Fill-33" fill="#FFFFFF"></path>
                                <path d="M7.09323029,12.0357257 C7.09323029,12.0357257 7.46289579,13.4191543 6.34781307,13.7372767 C5.23273035,14.0552522 4.64033812,12.8865012 4.64033812,12.8865012 C4.64033812,12.8865012 5.67789397,12.1028767 7.09323029,12.0357257" id="Fill-35" fill="#FFFFFF"></path>
                                <path d="M19.1533824,12.91392 C19.1533824,12.91392 18.1117691,14.5046792 16.8517764,14.0022955 C15.5917836,13.4999118 16.0769424,11.7359118 16.0769424,11.7359118 C16.0769424,11.7359118 17.5886439,11.6766955 19.1533824,12.91392" id="Fill-37" fill="#FFFFFF"></path>
                                <path d="M22.1466151,14.2962024 C22.1466151,14.2962024 21.1441275,15.3280065 20.3287188,14.9522841 C19.5134549,14.5764147 19.6632919,13.1700637 19.6632919,13.1700637 C19.6632919,13.1700637 21.2370149,13.274831 22.1466151,14.2962024" id="Fill-39" fill="#FFFFFF"></path>
                                <path d="M24.5643811,14.4586433 C24.5643811,14.4586433 23.13267,14.5112473 21.8849946,14.0516229 C20.4215481,13.5126514 17.1958507,11.3567657 13.651786,11.12328 C8.76744838,10.8014841 6.85869339,12.4003249 4.3100157,12.5330106 C2.54559111,12.6248473 2.22258664,12.3860718 2.22258664,12.3860718 C2.22258664,12.3860718 3.90760053,16.1820882 11.8698273,17.240929 C19.7917691,18.2943331 24.5643811,14.4586433 24.5643811,14.4586433 Z" id="Stroke-41" stroke="#050000" stroke-width="0.587755102" stroke-linecap="round" stroke-linejoin="round"></path>
                                <path d="M27.5933341,13.4857469 C27.5933341,20.3655673 21.6412994,24.4733878 13.9416496,24.4733878 C6.24185485,24.4733878 0,20.0716898 0,13.1918694 C0,6.31190204 5.80466127,0 13.9416496,0 C21.6412994,0 27.5933341,6.60592653 27.5933341,13.4857469 Z" id="Stroke-43" stroke="#050000" stroke-width="0.587755102"></path>
                                <path d="M11.6920082,11.2081224 C11.6920082,11.2081224 11.9984929,13.2732 13.4619394,13.4249878 C14.9252409,13.5767755 15.5837121,11.5296245 15.5837121,11.5296245" id="Stroke-45" stroke="#050000" stroke-width="0.587755102" stroke-linecap="round" stroke-linejoin="round"></path>
                                <path d="M7.68199976,11.93112 C7.68199976,11.93112 8.51117498,13.7098139 9.83536288,13.4331282 C11.1595508,13.1561486 11.1594059,11.2466792 11.1594059,11.2466792" id="Stroke-47" stroke="#050000" stroke-width="0.587755102" stroke-linecap="round" stroke-linejoin="round"></path>
                                <path d="M7.08502838,11.9493404 C7.08502838,11.9493404 7.45469388,13.3329159 6.33961116,13.6508914 C5.22452844,13.9688669 4.63213622,12.8001159 4.63213622,12.8001159" id="Stroke-49" stroke="#050000" stroke-width="0.587755102" stroke-linecap="round" stroke-linejoin="round"></path>
                                <path d="M15.9236855,11.6495118 C15.9236855,11.6495118 15.5835817,13.4135118 16.8435744,13.9158955 C18.1035672,14.4182792 19.1451805,12.82752 19.1451805,12.82752" id="Stroke-51" stroke="#050000" stroke-width="0.587755102" stroke-linecap="round" stroke-linejoin="round"></path>
                                <path d="M19.5101509,13.0836784 C19.5101509,13.0836784 19.3946577,14.421409 20.1755778,14.8658988 C21.3545659,15.5371151 22.1383843,14.2098171 22.1383843,14.2098171" id="Stroke-53" stroke="#050000" stroke-width="0.587755102" stroke-linecap="round" stroke-linejoin="round"></path>
                                <path d="M24.5675691,5.50814694 C25.6593213,7.81097143 24.9217293,10.4688 22.9203768,11.4443265 C20.9188794,12.4198531 18.4113561,11.3438204 17.3196039,9.04099592 C16.2279966,6.73817143 16.9654438,4.08034286 18.9669412,3.10481633 C20.9682937,2.12914286 23.4758169,3.20532245 24.5675691,5.50814694" id="Fill-55" fill="#FFFFFF"></path>
                                <path d="M24.5675691,5.50814694 C25.6593213,7.81097143 24.9217293,10.4688 22.9203768,11.4443265 C20.9188794,12.4198531 18.4113561,11.3438204 17.3196039,9.04099592 C16.2279966,6.73817143 16.9654438,4.08034286 18.9669412,3.10481633 C20.9682937,2.12914286 23.4758169,3.20532245 24.5675691,5.50814694 Z" id="Stroke-57" stroke="#050000" stroke-width="0.587755102"></path>
                                <path d="M22.3362444,6.6040898 C23.298592,8.63404898 22.9564594,10.8266694 21.5719889,11.5015592 C20.1876633,12.176302 18.2851395,11.0777878 17.3227919,9.04768163 C16.3604444,7.01772245 16.7027219,4.82510204 18.0870475,4.15035918 C19.4715179,3.47546939 21.3738969,4.57413061 22.3362444,6.6040898" id="Fill-59" fill="#050000"></path>
                                <line x1="17.1958942" y1="4.15204898" x2="21.3545224" y2="1.91270204" id="Stroke-61" stroke="#050000" stroke-width="1.1755102" stroke-linecap="round" stroke-linejoin="round"></line>
                                <path d="M3.64560319,4.50834612 C2.55385098,6.81131755 3.29129815,9.46899918 5.29279556,10.4445257 C7.29429296,11.4201992 9.8016713,10.3441665 10.8934235,8.0411951 C11.9851757,5.73837061 11.2477285,3.08054204 9.24623113,2.10501551 C7.24473373,1.12948898 4.73735539,2.20552163 3.64560319,4.50834612" id="Fill-63" fill="#FFFFFF"></path>
                                <path d="M3.64560319,4.50834612 C2.55385098,6.81131755 3.29129815,9.46899918 5.29279556,10.4445257 C7.29429296,11.4201992 9.8016713,10.3441665 10.8934235,8.0411951 C11.9851757,5.73837061 11.2477285,3.08054204 9.24623113,2.10501551 C7.24473373,1.12948898 4.73735539,2.20552163 3.64560319,4.50834612 Z" id="Stroke-65" stroke="#050000" stroke-width="0.587755102"></path>
                                <path d="M5.87685545,5.60428898 C4.91450791,7.63424816 5.2566405,9.82701551 6.64111098,10.5017584 C8.02543654,11.1765012 9.92796039,10.0779869 10.8903079,8.04802776 C11.8526555,6.01792163 11.510378,3.82530122 10.1260524,3.15055837 C8.74158193,2.47566857 6.83920299,3.5743298 5.87685545,5.60428898" id="Fill-67" fill="#050000"></path>
                                <line x1="11.0172057" y1="3.15232163" x2="6.85872238" y2="0.912974694" id="Stroke-69" stroke="#050000" stroke-width="1.1755102" stroke-linecap="round" stroke-linejoin="round"></line>
                                <path d="M20.5043497,6.99059755 C20.605352,7.30666286 21.2796184,7.3682302 22.0105446,7.12813224 C22.7414708,6.88818122 23.2519889,6.43737306 23.1511315,6.12130776 C23.0501292,5.80538939 22.3758628,5.74382204 21.6449366,5.98377306 C20.9141553,6.22387102 20.4034923,6.67467918 20.5043497,6.99059755" id="Fill-71" fill="#FFFFFF"></path>
                                <path d="M7.67831904,6.99059755 C7.57746166,7.30666286 6.90305036,7.3682302 6.17212414,7.12813224 C5.44134283,6.88818122 4.93067987,6.43737306 5.03153725,6.12130776 C5.13253955,5.80538939 5.80680594,5.74382204 6.53773216,5.98377306 C7.26865837,6.22387102 7.77932134,6.67467918 7.67831904,6.99059755" id="Fill-73" fill="#FFFFFF"></path>
                                <path d="M12.9796353,8.81728163 C12.9015288,8.9126449 12.7309697,8.89986122 12.5986668,8.78848163 C12.466364,8.67710204 12.4223113,8.5094449 12.5004178,8.41408163 C12.5785243,8.31857143 12.7490834,8.33150204 12.8813863,8.44288163 C13.0136892,8.55426122 13.0577418,8.72191837 12.9796353,8.81728163" id="Fill-75" fill="#050000"></path>
                                <path d="M14.9321096,8.81728163 C15.0102162,8.9126449 15.1807753,8.89986122 15.3130781,8.78848163 C15.445381,8.67710204 15.4894336,8.5094449 15.4113271,8.41408163 C15.3332206,8.31857143 15.1626615,8.33150204 15.0303587,8.44288163 C14.8980558,8.55426122 14.8540031,8.72191837 14.9321096,8.81728163" id="Fill-77" fill="#050000"></path>
                                <path d="M19.9814563,29.2660163 C19.9814563,29.2660163 22.9195073,29.5250694 21.3520155,32.2635673" id="Stroke-87" stroke="#050000" stroke-width="0.587755102" stroke-linecap="round" stroke-linejoin="round"></path>
                            </g>
                        </g>
                    </g>
                </g>
            </g>
            <ellipse id="椭圆形备份-8" fill="#EDEDED" filter="url(#filter-21)" cx="156.086458" cy="196.572407" rx="91.0285111" ry="17.557137"></ellipse>
            <g id="编组-10" transform="translate(3.472435, 0.000000)">
                <g id="编组-7" transform="translate(29.569819, 39.792776)">
                    <g id="编组-5" transform="translate(0.000000, 13.321315)">
                        <path d="M0,83.6590077 L246.014889,83.6590077 L246.014889,100.765962 C246.014889,123.101152 190.94258,141.207401 123.007445,141.207401 C55.0723089,141.207401 0,123.101152 0,100.765962 L0,100.765962 L0,83.6590077 Z" id="形状结合" fill="url(#linearGradient-22)"></path>
                        <ellipse id="椭圆形备份-3" fill="url(#radialGradient-23)" cx="123.007445" cy="83.6590077" rx="123.007445" ry="40.4414396"></ellipse>
                        <g id="编组-4" transform="translate(6.304225, 29.886319)">
                            <g id="椭圆形备份-5" transform="translate(0.000424, 0.000000)">
                                <mask id="mask-25" fill="white">
                                    <use xlink:href="#path-24"></use>
                                </mask>
                                <use id="形状结合" fill="#ECD31B" xlink:href="#path-24"></use>
                            </g>
                            <polygon id="路径-6" fill="url(#linearGradient-26)" points="0 16.8697354 0 33.2938012 85.1973672 39.2167717 85.1973672 26.5366172"></polygon>
                        </g>
                        <g id="椭圆形备份-6" transform="translate(59.032134, 0.000000)">
                            <mask id="mask-28" fill="white">
                                <use xlink:href="#path-27"></use>
                            </mask>
                            <use id="形状结合" fill="#FE5A82" xlink:href="#path-27"></use>
                        </g>
                        <polygon id="路径-7" fill="url(#linearGradient-29)" points="59.0326727 9.12447778 59.0326727 24.345037 112.367338 50.1759542 112.367338 35.6804041"></polygon>
                        <polygon id="路径-8" fill="url(#linearGradient-30)" points="239.560563 35.6804041 239.560563 50.1759542 112.367338 50.1759542 112.367338 35.6804041"></polygon>
                    </g>
                    <g id="编组-9" transform="translate(100.567404, 77.554926)" fill="#2F2E41">
                        <text id="50%" font-family="Poppins" font-size="22.5" font-weight="bold">
                            <tspan x="18.8235714" y="25">50%</tspan>
                        </text>
                        <text id="Burned-Dev-Tokens" font-family="Poppins-Regular, Poppins" font-size="9" font-weight="normal">
                            <tspan x="0.166571429" y="40.9080521">Burned Dev Tokens</tspan>
                        </text>
                    </g>
                    <g id="编组-6" transform="translate(16.511066, 34.063847)">
                        <ellipse id="椭圆形" fill="#2F2E41" cx="3.30221328" cy="15.57223" rx="3.30221328" ry="3.30134201"></ellipse>
                        <line x1="3.30221328" y1="15.57223" x2="3.30221328" y2="9.9161021e-14" id="路径-10" stroke="url(#linearGradient-31)" stroke-width="1.5"></line>
                    </g>
                    <g id="编组-6" transform="translate(160.157344, -0.000000)">
                        <ellipse id="椭圆形" fill="#2F2E41" cx="3.30221328" cy="15.57223" rx="3.30221328" ry="3.30134201"></ellipse>
                        <line x1="3.30221328" y1="15.57223" x2="3.30221328" y2="-4.26499015e-15" id="路径-10" stroke="url(#linearGradient-31)" stroke-width="1.5"></line>
                    </g>
                </g>
                <g id="编组-9" transform="translate(151.151308, 0.000000)" fill="#2F2E41">
                    <text id="40%" font-family="Poppins" font-size="22.5" font-weight="bold">
                        <tspan x="19.2703244" y="25">40%</tspan>
                    </text>
                    <text id="Fair-Launch-Supply" font-family="Poppins-Regular, Poppins" font-size="9" font-weight="normal">
                        <tspan x="0.156574447" y="37.1617792"> Fair Launch Supply</tspan>
                    </text>
                </g>
                <g id="编组-9备份" transform="translate(0.000000, 30.167513)" fill="#2F2E41">
                    <text id="10%" font-family="Poppins" font-size="22.5" font-weight="bold">
                        <tspan x="18.6980106" y="25">10%</tspan>
                    </text>
                    <text id="Gradually-destroy" font-family="Poppins-Regular, Poppins" font-size="9" font-weight="normal">
                        <tspan x="0.142260563" y="37.756771">Gradually destroy</tspan>
                    </text>
                </g>
            </g>
            <text id="Total：1,000,000,000," font-family="Poppins" font-size="18" font-weight="bold" fill="#2F2E41">
                <tspan x="48.8849638" y="242.689">Total</tspan>
                <tspan x="97.3949638" y="242.689" font-family="PingFangSC-Semibold, PingFang SC" font-weight="500">：</tspan>
                <tspan x="115.394964" y="242.689">1,000,000,000,000,000</tspan>
            </text>
        </g>
    </g>
</svg>